<?xml version="1.0" encoding="UTF-8"?>
<svg version="1.1" xmlns="http://www.w3.org/2000/svg" width="512" height="512">
<path d="M0 0 C0.73397003 -0.00700928 1.46794006 -0.01401855 2.22415161 -0.02124023 C4.64070922 -0.03878834 7.05608756 -0.02720978 9.47265625 -0.01367188 C11.15747298 -0.01636773 12.84228819 -0.02025093 14.52709961 -0.02526855 C18.05435023 -0.03115925 21.58119507 -0.02261473 25.10839844 -0.00390625 C29.62461142 0.01888338 34.13987353 0.00575795 38.65605164 -0.01819611 C42.13398372 -0.03266586 45.6116912 -0.02804277 49.08963013 -0.01768494 C50.75456862 -0.01502089 52.41952764 -0.0182761 54.08444214 -0.02760315 C56.41361323 -0.0377886 58.74125502 -0.02224207 61.0703125 0 C61.75513702 -0.00809692 62.43996155 -0.01619385 63.14553833 -0.02453613 C66.4421421 0.03364259 68.54901819 0.52502048 71.4662323 2.09124756 C74.19093115 5.28663814 74.20781747 7.84281217 74.1027832 11.85644531 C74.1038784 12.95459816 74.1038784 12.95459816 74.10499573 14.07493591 C74.10151901 16.48886857 74.06265822 18.90085869 74.0234375 21.31445312 C74.01410957 22.990244 74.00699336 24.66604852 74.0019989 26.34185791 C73.98292727 30.74808538 73.93382576 35.15348597 73.878479 39.55938721 C73.82728965 44.05705581 73.80448558 48.5548583 73.77929688 53.05273438 C73.72570661 61.87471184 73.64039231 70.69607617 73.53515625 79.51757812 C74.46587952 79.50647507 75.39660278 79.49537201 76.35552979 79.4839325 C85.12499679 79.38259179 93.89434507 79.30762998 102.66426468 79.25851727 C107.17307176 79.23241883 111.6814063 79.1970169 116.18994141 79.14038086 C120.54067378 79.08606892 124.89095157 79.05615944 129.24199677 79.04319191 C130.90225126 79.03395046 132.56248076 79.0159037 134.22254181 78.98892784 C136.54767176 78.95264604 138.87092176 78.94763206 141.19628906 78.94995117 C141.88321335 78.93197479 142.57013763 78.91399841 143.27787781 78.89547729 C146.73179838 78.93277134 148.30750782 79.32346307 150.96148682 81.58650208 C152.86772402 85.13701027 153.09922966 88.0499268 153.05273438 91.98242188 C153.05974365 92.71639191 153.06675293 93.45036194 153.07397461 94.20657349 C153.09152272 96.6231311 153.07994416 99.03850943 153.06640625 101.45507812 C153.0691021 103.13989486 153.0729853 104.82471007 153.07800293 106.50952148 C153.08389363 110.03677211 153.07534911 113.56361694 153.05664062 117.09082031 C153.03385099 121.60703329 153.04697642 126.1222954 153.07093048 130.63847351 C153.08540023 134.11640559 153.08077714 137.59411307 153.07041931 141.072052 C153.06775526 142.73699049 153.07101047 144.40194952 153.08033752 146.06686401 C153.09052298 148.39603511 153.07497644 150.7236769 153.05273438 153.05273438 C153.0608313 153.7375589 153.06892822 154.42238342 153.07727051 155.12796021 C153.01909179 158.42456397 152.52771389 160.53144006 150.96148682 163.44865417 C147.76609624 166.17335302 145.20992221 166.19023935 141.19628906 166.08520508 C140.46418716 166.08593521 139.73208527 166.08666534 138.97779846 166.0874176 C136.5638658 166.08394088 134.15187569 166.04508009 131.73828125 166.00585938 C130.06249038 165.99653144 128.38668585 165.98941523 126.71087646 165.98442078 C122.304649 165.96534914 117.8992484 165.91624764 113.49334717 165.86090088 C108.99567857 165.80971153 104.49787607 165.78690745 100 165.76171875 C91.17802254 165.70812849 82.35665821 165.62281418 73.53515625 165.51757812 C73.54625931 166.44830139 73.55736237 167.37902466 73.56880188 168.33795166 C73.67014259 177.10741866 73.7451044 185.87676694 73.79421711 194.64668655 C73.82031554 199.15549363 73.85571747 203.66382818 73.91235352 208.17236328 C73.96666546 212.52309565 73.99657493 216.87337344 74.00954247 221.22441864 C74.01878392 222.88467313 74.03683068 224.54490263 74.06380653 226.20496368 C74.10008833 228.53009364 74.10510232 230.85334363 74.1027832 233.17871094 C74.12974777 234.20909737 74.12974777 234.20909737 74.15725708 235.26029968 C74.11996303 238.71422026 73.7292713 240.2899297 71.4662323 242.94390869 C67.9157241 244.8501459 65.00280757 245.08165154 61.0703125 245.03515625 C60.33634247 245.04216553 59.60237244 245.0491748 58.84616089 245.05639648 C56.42960328 245.07394459 54.01422494 245.06236603 51.59765625 245.04882812 C49.91283952 245.05152398 48.22802431 245.05540718 46.54321289 245.0604248 C43.01596227 245.0663155 39.48911743 245.05777098 35.96191406 245.0390625 C31.44570108 245.01627287 26.93043897 245.0293983 22.41426086 245.05335236 C18.93632878 245.06782211 15.4586213 245.06319902 11.98068237 245.05284119 C10.31574388 245.05017714 8.65078486 245.05343235 6.98587036 245.0627594 C4.65669927 245.07294485 2.32905748 245.05739832 0 245.03515625 C-0.68482452 245.04325317 -1.36964905 245.0513501 -2.07522583 245.05969238 C-5.3718296 245.00151366 -7.47870569 244.51013577 -10.3959198 242.94390869 C-13.12061865 239.74851811 -13.13750497 237.19234408 -13.0324707 233.17871094 C-13.03320084 232.44660904 -13.03393097 231.71450714 -13.03468323 230.96022034 C-13.03120651 228.54628768 -12.99234572 226.13429756 -12.953125 223.72070312 C-12.94379707 222.04491225 -12.93668086 220.36910773 -12.9316864 218.69329834 C-12.91261477 214.28707087 -12.86351326 209.88167028 -12.8081665 205.47576904 C-12.75697715 200.97810044 -12.73417308 196.48029795 -12.70898438 191.98242188 C-12.65539411 183.16044441 -12.57007981 174.33908008 -12.46484375 165.51757812 C-13.86092865 165.53423271 -13.86092865 165.53423271 -15.28521729 165.55122375 C-24.05468429 165.65256446 -32.82403257 165.72752627 -41.59395218 165.77663898 C-46.10275926 165.80273742 -50.6110938 165.83813935 -55.11962891 165.89477539 C-59.47036128 165.94908733 -63.82063907 165.97899681 -68.17168427 165.99196434 C-69.83193876 166.00120579 -71.49216826 166.01925255 -73.15222931 166.04622841 C-75.47735926 166.08251021 -77.80060926 166.08752419 -80.12597656 166.08520508 C-81.15636299 166.11216965 -81.15636299 166.11216965 -82.20756531 166.13967896 C-85.66148588 166.10238491 -87.23719532 165.71169318 -89.89117432 163.44865417 C-91.79741152 159.89814598 -92.02891716 156.98522945 -91.98242188 153.05273438 C-91.99293579 151.95177933 -91.99293579 151.95177933 -92.00366211 150.82858276 C-92.02121022 148.41202515 -92.00963166 145.99664682 -91.99609375 143.58007812 C-91.9987896 141.89526139 -92.0026728 140.21044618 -92.00769043 138.52563477 C-92.01358113 134.99838414 -92.00503661 131.47153931 -91.98632812 127.94433594 C-91.96353849 123.42812296 -91.97666392 118.91286085 -92.00061798 114.39668274 C-92.01508773 110.91875066 -92.01046464 107.44104318 -92.00010681 103.96310425 C-91.99744276 102.29816576 -92.00069797 100.63320673 -92.01002502 98.96829224 C-92.02021048 96.63912114 -92.00466394 94.31147935 -91.98242188 91.98242188 C-91.9905188 91.29759735 -91.99861572 90.61277283 -92.00695801 89.90719604 C-91.94877929 86.61059228 -91.45740139 84.50371619 -89.89117432 81.58650208 C-86.69578374 78.86180323 -84.13960971 78.8449169 -80.12597656 78.94995117 C-79.39387466 78.94922104 -78.66177277 78.94849091 -77.90748596 78.94773865 C-75.4935533 78.95121537 -73.08156319 78.99007616 -70.66796875 79.02929688 C-68.99217788 79.03862481 -67.31637335 79.04574102 -65.64056396 79.05073547 C-61.2343365 79.06980711 -56.8289359 79.11890861 -52.42303467 79.17425537 C-47.92536607 79.22544472 -43.42756357 79.2482488 -38.9296875 79.2734375 C-30.10771004 79.32702776 -21.28634571 79.41234207 -12.46484375 79.51757812 C-12.47594681 78.58685486 -12.48704987 77.65613159 -12.49848938 76.69720459 C-12.59983009 67.92773759 -12.6747919 59.15838931 -12.72390461 50.3884697 C-12.75000304 45.87966262 -12.78540497 41.37132807 -12.84204102 36.86279297 C-12.89635296 32.5120606 -12.92626243 28.16178281 -12.93922997 23.81073761 C-12.94847142 22.15048312 -12.96651818 20.49025362 -12.99349403 18.83019257 C-13.02977583 16.50506261 -13.03478982 14.18181262 -13.0324707 11.85644531 C-13.05044708 11.16952103 -13.06842346 10.48259674 -13.08694458 9.77485657 C-13.04965053 6.32093599 -12.6589588 4.74522655 -10.3959198 2.09124756 C-6.8454116 0.18501035 -3.93249507 -0.04649529 0 0 Z M0.53515625 13.51757812 C0.46167969 21.71214844 0.46167969 21.71214844 0.38671875 30.07226562 C0.35134639 33.5267116 0.31539447 36.9811319 0.27734375 40.43554688 C0.21696189 45.92232651 0.15876379 51.40907009 0.11328125 56.89599609 C0.07649121 61.31811491 0.03014879 65.74003858 -0.02290726 70.16199112 C-0.04148473 71.85170199 -0.05658021 73.54145475 -0.06818771 75.23122787 C-0.08499317 77.59234487 -0.11401333 79.95301163 -0.14599609 82.31396484 C-0.14815628 83.01743042 -0.15031647 83.720896 -0.15254211 84.44567871 C-0.23673943 89.2894738 -0.23673943 89.2894738 -2.46484375 91.51757812 C-4.90178787 91.73468445 -7.22869682 91.82893382 -9.66845703 91.83642578 C-10.41002045 91.84647141 -11.15158386 91.85651703 -11.9156189 91.86686707 C-14.3721233 91.89781208 -16.82851818 91.91476532 -19.28515625 91.93164062 C-20.98624624 91.9503432 -22.68732686 91.96991592 -24.38839722 91.99032593 C-28.86983734 92.04174944 -33.35130758 92.08132028 -37.83288574 92.11846924 C-43.2077583 92.16547111 -48.58248027 92.22711253 -53.95722961 92.28631592 C-62.12637388 92.3746527 -70.29548748 92.44432764 -78.46484375 92.51757812 C-78.46484375 112.31757813 -78.46484375 132.11757813 -78.46484375 152.51757812 C-73.00179687 152.5665625 -67.53875 152.61554688 -61.91015625 152.66601562 C-58.45571027 152.70138798 -55.00128997 152.7373399 -51.546875 152.77539062 C-46.06009536 152.83577249 -40.57335179 152.89397058 -35.08642578 152.93945312 C-30.66430696 152.97624317 -26.24238329 153.02258558 -21.82043076 153.07564163 C-20.13071988 153.0942191 -18.44096713 153.10931459 -16.751194 153.12092209 C-14.39007701 153.13772754 -12.02941024 153.1667477 -9.66845703 153.19873047 C-8.61325867 153.20197075 -8.61325867 153.20197075 -7.53674316 153.20527649 C-2.69294807 153.2894738 -2.69294807 153.2894738 -0.46484375 155.51757812 C-0.24773743 157.95452225 -0.15348806 160.2814312 -0.14599609 162.72119141 C-0.13595047 163.46275482 -0.12590485 164.20431824 -0.11555481 164.96835327 C-0.08460979 167.42485767 -0.06765655 169.88125255 -0.05078125 172.33789062 C-0.03207867 174.03898061 -0.01250595 175.74006124 0.00790405 177.44113159 C0.05932757 181.92257172 0.09889841 186.40404196 0.13604736 190.88562012 C0.18304924 196.26049268 0.24469065 201.63521464 0.30389404 207.00996399 C0.39223082 215.17910826 0.46190577 223.34822185 0.53515625 231.51757812 C20.33515625 231.51757812 40.13515625 231.51757812 60.53515625 231.51757812 C60.60863281 223.32300781 60.60863281 223.32300781 60.68359375 214.96289062 C60.71896611 211.50844465 60.75491803 208.05402435 60.79296875 204.59960938 C60.85335061 199.11282974 60.91154871 193.62608616 60.95703125 188.13916016 C60.99382129 183.71704134 61.04016371 179.29511767 61.09321976 174.87316513 C61.11179723 173.18345426 61.12689271 171.4937015 61.13850021 169.80392838 C61.15530567 167.44281138 61.18432583 165.08214462 61.21630859 162.72119141 C61.21954887 161.66599304 61.21954887 161.66599304 61.22285461 160.58947754 C61.30705193 155.74568245 61.30705193 155.74568245 63.53515625 153.51757812 C65.97210037 153.3004718 68.29900932 153.20622243 70.73876953 153.19873047 C71.85111465 153.18366203 71.85111465 153.18366203 72.9859314 153.16828918 C75.4424358 153.13734417 77.89883068 153.12039093 80.35546875 153.10351562 C82.05655874 153.08481305 83.75763936 153.06524033 85.45870972 153.04483032 C89.94014984 152.99340681 94.42162008 152.95383597 98.90319824 152.91668701 C104.2780708 152.86968514 109.65279277 152.80804372 115.02754211 152.74884033 C123.19668638 152.66050355 131.36579998 152.59082861 139.53515625 152.51757812 C139.53515625 132.71757812 139.53515625 112.91757813 139.53515625 92.51757812 C134.07210937 92.46859375 128.6090625 92.41960937 122.98046875 92.36914062 C119.52602277 92.33376827 116.07160247 92.29781635 112.6171875 92.25976562 C107.13040786 92.19938376 101.64366429 92.14118567 96.15673828 92.09570312 C91.73461946 92.05891308 87.31269579 92.01257067 82.89074326 91.95951462 C81.20103238 91.94093715 79.51127963 91.92584166 77.8215065 91.91423416 C75.46038951 91.89742871 73.09972274 91.86840855 70.73876953 91.83642578 C69.68357117 91.8331855 69.68357117 91.8331855 68.60705566 91.82987976 C63.76326057 91.74568245 63.76326057 91.74568245 61.53515625 89.51757812 C61.31804993 87.080634 61.22380056 84.75372505 61.21630859 82.31396484 C61.20124016 81.20161972 61.20124016 81.20161972 61.18586731 80.06680298 C61.15492229 77.61029858 61.13796905 75.1539037 61.12109375 72.69726562 C61.10239117 70.99617564 61.08281845 69.29509501 61.06240845 67.59402466 C61.01098493 63.11258453 60.97141409 58.63111429 60.93426514 54.14953613 C60.88726326 48.77466357 60.82562185 43.39994161 60.76641846 38.02519226 C60.67808168 29.85604799 60.60840673 21.6869344 60.53515625 13.51757812 C40.73515625 13.51757812 20.93515625 13.51757812 0.53515625 13.51757812 Z " fill="#000000" transform="translate(225.46484375,133.482421875)"/>
<path d="M0 0 C6.13641741 3.06820871 9.13279797 7.93871623 12 14 C14.0762999 22.39275442 12.80049596 29.31983108 9 37 C4.60077004 43.49125507 -1.54153022 46.17118762 -9 48 C-12.81018011 48.31230984 -15.36578113 48.1981934 -19 47.0625 C-21.9453793 46.69125093 -21.9453793 46.69125093 -23.6484375 48.24609375 C-24.76599947 49.38135467 -25.85245767 50.54846419 -26.8984375 51.75 C-28.74689873 53.72902169 -30.62236866 55.43018667 -32.67626953 57.18725586 C-36.72595578 60.7114151 -40.52204747 64.42442755 -44.28125 68.25390625 C-45.63137464 69.61667099 -46.98163928 70.97929704 -48.33203125 72.34179688 C-50.42044347 74.45500684 -52.50719298 76.56980802 -54.59130859 78.68725586 C-56.62927859 80.75565405 -58.6736133 82.8175972 -60.71875 84.87890625 C-61.33045044 85.50406631 -61.94215088 86.12922638 -62.5723877 86.77333069 C-64.34601014 88.55703805 -66.16504523 90.2797095 -68 92 C-68.55210648 92.57776184 -69.10421295 93.15552368 -69.67304993 93.75079346 C-76.04588367 99.63049611 -83.76758583 98.83497844 -91.91796875 98.7265625 C-93.46397398 98.72552361 -95.00998187 98.72656553 -96.5559845 98.72958374 C-99.78308981 98.72940506 -103.00918784 98.70870121 -106.23608398 98.67236328 C-110.36556269 98.62687343 -114.49357979 98.62592827 -118.62324047 98.63939857 C-121.81041897 98.64608895 -124.99726594 98.63280026 -128.18438148 98.61314011 C-129.70695574 98.6054628 -131.22956693 98.6031286 -132.75215721 98.6063118 C-134.879999 98.60705606 -137.00598325 98.5817451 -139.13354492 98.54931641 C-140.34185471 98.54010162 -141.55016449 98.53088684 -142.79508972 98.52139282 C-146.63238119 97.89712067 -148.34658395 96.81425586 -151 94 C-150.93113135 90.00561826 -150.8685771 87.8685771 -148 85 C-145.40000916 84.94358826 -145.40000916 84.94358826 -142.05444336 85.20483398 C-140.17078316 85.33276085 -140.17078316 85.33276085 -138.24906921 85.46327209 C-137.23496255 85.53459697 -137.23496255 85.53459697 -136.20036888 85.60736275 C-100.43399994 89.17925703 -100.43399994 89.17925703 -68.42578125 76.83984375 C-61.18390724 70.31591755 -55.20092906 62.62223626 -49.64648438 54.64379883 C-46.64327385 50.37106528 -43.12446527 47.16785705 -39 44 C-37.28501576 42.37445878 -35.64527883 40.69669379 -34 39 C-34.28875 38.29875 -34.5775 37.5975 -34.875 36.875 C-35.24625 35.92625 -35.6175 34.9775 -36 34 C-36.37125 33.13375 -36.7425 32.2675 -37.125 31.375 C-39.07684491 23.84645537 -38.75643162 16.95614706 -35.19140625 10 C-27.61852489 -2.71250904 -13.22266237 -6.55409022 0 0 Z M-23.4375 15.625 C-25.499638 20.07921808 -25.48704447 23.34116702 -24 28 C-21.20251795 31.65226824 -18.49832327 33.90284798 -14 35 C-9.54687221 34.9052526 -6.57966261 33.62195129 -3.2734375 30.578125 C-0.90410996 27.64190314 0.01383432 24.76293411 0 21 C-1.19812078 16.40446826 -3.01162209 13.67293815 -6.9375 11 C-13.79557974 8.76062703 -18.48496951 10.29150562 -23.4375 15.625 Z " fill="#000000" transform="translate(468,107)"/>
<path d="M0 0 C1.54600523 0.00103889 3.09201312 -0.00000303 4.63801575 -0.00302124 C7.86512106 -0.00284256 11.09121909 0.01786129 14.31811523 0.05419922 C18.44759394 0.09968907 22.57561104 0.10063423 26.70527172 0.08716393 C29.89245022 0.08047355 33.07929719 0.09376224 36.26641273 0.11342239 C37.78898699 0.1210997 39.31159818 0.1234339 40.83418846 0.1202507 C42.96203025 0.11950644 45.0880145 0.1448174 47.21557617 0.17724609 C48.42388596 0.18646088 49.63219574 0.19567566 50.87712097 0.20516968 C54.71441244 0.82944183 56.4286152 1.91230664 59.08203125 4.7265625 C59.0131626 8.72094424 58.95060835 10.8579854 56.08203125 13.7265625 C53.48204041 13.78297424 53.48204041 13.78297424 50.13647461 13.52172852 C48.25281441 13.39380165 48.25281441 13.39380165 46.33110046 13.26329041 C45.65502935 13.21574049 44.97895824 13.16819057 44.28240013 13.11919975 C8.51603119 9.54730547 8.51603119 9.54730547 -23.4921875 21.88671875 C-30.73406151 28.41064495 -36.71703969 36.10432624 -42.27148438 44.08276367 C-45.2746949 48.35549722 -48.79350348 51.55870545 -52.91796875 54.7265625 C-54.63295299 56.35210372 -56.27268992 58.02986871 -57.91796875 59.7265625 C-57.62921875 60.4071875 -57.34046875 61.0878125 -57.04296875 61.7890625 C-53.8517316 70.12173728 -52.07522213 77.98681962 -55.60546875 86.4765625 C-59.81540786 94.79375927 -65.14810722 98.80327532 -73.91796875 101.7265625 C-82.10226202 102.48248302 -87.82830676 100.7713935 -95.04296875 97.1640625 C-101.47680377 91.70928933 -104.40647056 84.84154439 -105.23046875 76.6015625 C-104.59520103 68.72424281 -102.02060606 61.51529287 -96.0390625 56.1640625 C-90.0154492 52.08176104 -83.18008839 50.01458999 -75.91796875 50.7265625 C-74.92796875 51.0359375 -73.93796875 51.3453125 -72.91796875 51.6640625 C-69.97258945 52.03531157 -69.97258945 52.03531157 -68.26953125 50.48046875 C-67.15196928 49.34520783 -66.06551108 48.17809831 -65.01953125 46.9765625 C-63.17107002 44.99754081 -61.29560009 43.29637583 -59.24169922 41.53930664 C-55.19201297 38.0151474 -51.39592128 34.30213495 -47.63671875 30.47265625 C-46.28659411 29.10989151 -44.93632947 27.74726546 -43.5859375 26.38476562 C-41.49752528 24.27155566 -39.41077577 22.15675448 -37.32666016 20.03930664 C-35.28869016 17.97090845 -33.24435545 15.9089653 -31.19921875 13.84765625 C-30.58751831 13.22249619 -29.97581787 12.59733612 -29.34558105 11.95323181 C-27.57195861 10.16952445 -25.75292352 8.446853 -23.91796875 6.7265625 C-23.36586227 6.14880066 -22.8137558 5.57103882 -22.24491882 4.97576904 C-15.87208508 -0.90393361 -8.15038292 -0.10841594 0 0 Z M-86.91796875 66.7265625 C-89.43933244 69.24792619 -90.72503585 71.18393871 -91.91796875 74.5390625 C-91.91796875 79.02002095 -90.54453882 82.12395582 -87.91796875 85.7265625 C-84.52470926 88.27150712 -82.00160975 88.96077316 -77.85546875 88.6640625 C-73.9856524 87.97593072 -71.65397956 86.62351512 -68.91796875 83.7265625 C-66.66323122 80.036992 -66.64922918 76.81652648 -67.30859375 72.65625 C-68.5645684 68.67899694 -71.59179944 66.57048842 -74.98046875 64.4140625 C-79.72591765 62.73019354 -82.86466967 64.27769431 -86.91796875 66.7265625 Z " fill="#000000" transform="translate(135.91796875,306.2734375)"/>
<path d="M0 0 C0.66581085 -0.01504074 1.3316217 -0.03008148 2.01760864 -0.045578 C4.21041869 -0.08852911 6.40201815 -0.1013424 8.59521484 -0.11010742 C10.13113844 -0.12551843 11.66705767 -0.14136928 13.20297241 -0.15763855 C16.42252541 -0.18607441 19.64165616 -0.1975067 22.86132812 -0.19921875 C26.9610202 -0.2043826 31.0573529 -0.2692107 35.15616798 -0.34950733 C38.33072964 -0.40185474 41.50450148 -0.41277993 44.6794548 -0.41272545 C46.18885193 -0.41923675 47.69826674 -0.4402798 49.20723343 -0.47690773 C58.63028197 -0.68596068 64.74114831 0.45262317 71.7902832 7.12831116 C72.57927002 7.94295334 73.36825684 8.75759552 74.18115234 9.59692383 C74.90214111 10.28076645 75.62312988 10.96460907 76.3659668 11.66917419 C78.42477699 13.62933307 80.42194717 15.63709893 82.41162109 17.66723633 C83.13174881 18.39256561 83.85187653 19.1178949 84.59382629 19.86520386 C86.85703245 22.14595758 89.11332737 24.43337882 91.36865234 26.72192383 C93.6355855 29.01668845 95.90406812 31.3098676 98.1756134 33.60006714 C99.57765514 35.01414665 100.97702105 36.43088666 102.37309265 37.8508606 C109.60740636 45.59646002 109.60740636 45.59646002 118.18115234 51.59692383 C118.90302734 51.45254883 119.62490234 51.30817383 120.36865234 51.15942383 C127.96293762 49.64056677 134.39894707 50.98688343 141.18115234 54.59692383 C147.42755577 59.63302249 151.12772368 65.62271381 152.18115234 73.59692383 C152.43710118 81.26375501 150.60765802 87.81333219 145.41943359 93.54223633 C139.86076003 98.76236592 134.4123436 101.63908133 126.74365234 101.97192383 C119.33854669 101.66603306 113.1416987 99.41109098 107.68505859 94.34692383 C102.46448781 88.27207782 100.86219649 81.34608977 100.87255859 73.52270508 C101.27605599 69.69714115 102.60722025 66.88141295 104.50146484 63.56958008 C105.39857494 61.60077447 105.39857494 61.60077447 104.55615234 59.61254883 C102.92691851 57.22424014 101.12103833 55.30973883 99.05615234 53.28442383 C97.96947266 52.20741211 97.96947266 52.20741211 96.86083984 51.10864258 C94.39385782 48.72133951 94.39385782 48.72133951 92.43505859 47.23168945 C88.54454779 44.11694183 85.70180689 41.04604035 83.02438354 36.81600952 C77.00002492 27.44333369 69.87193933 18.63218018 59.18115234 14.59692383 C44.52319655 11.59073491 29.12981721 12.44094291 14.26025391 12.93139648 C13.50851017 12.95584241 12.75676643 12.98028833 11.98224258 13.00547504 C8.38363215 13.12963886 4.79229518 13.28808237 1.19854736 13.51341248 C-0.07627502 13.57972366 -1.35109741 13.64603485 -2.66455078 13.71435547 C-4.34442078 13.8231881 -4.34442078 13.8231881 -6.05822754 13.93421936 C-8.81884766 13.59692383 -8.81884766 13.59692383 -10.67224121 11.74583435 C-12.12273065 9.02740203 -12.42579749 7.63167301 -11.81884766 4.59692383 C-8.00215733 0.75508547 -5.34045124 0.08132906 0 0 Z M117.18115234 67.59692383 C114.4778661 71.6082518 113.48004095 74.78930283 114.18115234 79.59692383 C116.63781544 84.41576298 119.01024261 86.90643411 124.18115234 88.59692383 C128.03586965 88.99010499 130.9268918 88.61008461 133.98974609 86.13598633 C136.86669609 82.97617075 139.29175632 80.02108296 139.18115234 75.59692383 C137.56675174 70.48465526 135.83766487 67.34849941 131.18115234 64.59692383 C125.38774241 62.88035792 121.67000907 63.7344192 117.18115234 67.59692383 Z " fill="#000000" transform="translate(328.81884765625,306.403076171875)"/>
<path d="M0 0 C5.28809645 4.11886909 8.74151215 9.39551098 10.2421875 15.8984375 C11.01866357 22.67495592 9.9579497 27.57988198 6.921875 33.671875 C6.01915803 35.87213224 6.01915803 35.87213224 6.8984375 37.94921875 C8.39078122 40.11398478 9.98679367 41.87174752 11.8671875 43.7109375 C12.49882813 44.33613281 13.13046875 44.96132812 13.78125 45.60546875 C16.06112567 47.79890148 16.06112567 47.79890148 17.93945312 49.21484375 C21.90106136 52.38093227 24.79348098 55.55613968 27.55360413 59.83399963 C34.55299356 70.51654071 42.95287979 80.93713209 56.00543213 83.69299316 C69.60388594 85.65682997 83.52803728 85.08625267 97.21386719 84.61474609 C97.96443988 84.58912912 98.71501257 84.56351215 99.48832989 84.53711891 C103.07994001 84.40688938 106.66391453 84.24138746 110.25032043 84.00747681 C111.52195541 83.93797821 112.79359039 83.86847961 114.10375977 83.796875 C115.22065689 83.72130371 116.33755402 83.64573242 117.48829651 83.56787109 C120.2421875 83.8984375 120.2421875 83.8984375 122.09458923 85.74853516 C123.54593592 88.46747761 123.84929993 89.86287534 123.2421875 92.8984375 C119.42549717 96.74027586 116.76379108 97.41403227 111.42333984 97.49536133 C110.75752899 97.51040207 110.09171814 97.52544281 109.4057312 97.54093933 C107.21292116 97.58389043 105.02132169 97.59670373 102.828125 97.60546875 C101.29220141 97.62087976 99.75628217 97.6367306 98.22036743 97.65299988 C95.00081444 97.68143573 91.78168368 97.69286803 88.56201172 97.69458008 C84.46231964 97.69974393 80.36598694 97.76457203 76.26717186 97.84486866 C73.09261021 97.89721607 69.91883836 97.90814125 66.74388504 97.90808678 C65.23448792 97.91459808 63.7250731 97.93564113 62.21610641 97.97226906 C52.79305788 98.18132201 46.68219153 97.04273815 39.63305664 90.36705017 C38.84406982 89.55240799 38.05508301 88.73776581 37.2421875 87.8984375 C36.52119873 87.21459488 35.80020996 86.53075226 35.05737305 85.82618713 C32.99856285 83.86602826 31.00139267 81.8582624 29.01171875 79.828125 C28.29159103 79.10279572 27.57146332 78.37746643 26.82951355 77.63015747 C24.5663074 75.34940375 22.31001247 73.0619825 20.0546875 70.7734375 C17.78775434 68.47867288 15.51927172 66.18549373 13.24772644 63.89529419 C11.84568471 62.48121468 10.44631879 61.06447467 9.05024719 59.64450073 C1.81593348 51.8989013 1.81593348 51.8989013 -6.7578125 45.8984375 C-8.42899851 46.06671665 -10.0955322 46.28259575 -11.7578125 46.5234375 C-19.70044792 47.29174472 -25.87889285 45.7626249 -32.1328125 40.7109375 C-37.81751545 35.22146677 -40.37604694 29.36090271 -40.84765625 21.4765625 C-40.58028681 13.80422206 -37.93138969 8.10625084 -32.66015625 2.58984375 C-23.39635507 -5.64675976 -10.55528856 -6.6146475 0 0 Z M-24.7578125 12.8984375 C-26.51462972 15.81520455 -27.40325436 18.51297913 -27.7578125 21.8984375 C-26.39249267 27.10371936 -24.40309509 30.15349779 -19.7578125 32.8984375 C-15.58987402 34.13338224 -12.85755869 34.27705425 -9.0078125 32.3359375 C-5.59272276 30.10269904 -4.08552574 27.80347644 -2.7578125 23.8984375 C-2.18665055 19.9818984 -2.57412922 18.25873932 -4.3828125 14.7109375 C-7.52370367 10.99146111 -10.4054794 9.32065113 -15.1953125 8.4609375 C-18.9758014 9.10638682 -21.94429302 10.31937797 -24.7578125 12.8984375 Z " fill="#000000" transform="translate(71.7578125,108.1015625)"/>
<path d="M0 0 C0.96787949 -0.0127597 1.93575897 -0.02551941 2.93296814 -0.03866577 C3.97675125 -0.04089142 5.02053436 -0.04311707 6.09594727 -0.04541016 C7.70675926 -0.05539536 7.70675926 -0.05539536 9.35011292 -0.06558228 C11.6222258 -0.07571168 13.89436846 -0.08039921 16.16650391 -0.08007812 C19.64543574 -0.08445139 23.12309934 -0.12076963 26.60180664 -0.15869141 C28.8081825 -0.1645594 31.0145644 -0.16852891 33.22094727 -0.17041016 C34.26270615 -0.18478119 35.30446503 -0.19915222 36.37779236 -0.21395874 C43.53918035 -0.16857827 43.53918035 -0.16857827 46.91650391 2.09277344 C48.22485352 4.29052734 48.22485352 4.29052734 48.16235352 7.91552734 C47.22485352 11.29052734 47.22485352 11.29052734 44.22485352 13.29052734 C42.33930969 13.38058472 42.33930969 13.38058472 40.19091797 13.16503906 C39.381427 13.09572678 38.57193604 13.02641449 37.73791504 12.95500183 C36.86348755 12.87752213 35.98906006 12.80004242 35.08813477 12.72021484 C15.41621663 10.49879868 15.41621663 10.49879868 -2.23999023 16.8515625 C-7.76784777 22.95880514 -10.63188419 30.88405178 -13.29833984 38.55004883 C-15.23654537 43.8526407 -18.38537295 48.45676098 -21.4675293 53.15673828 C-23.14037262 56.26606329 -23.14037262 56.26606329 -21.89111328 59.56665039 C-20.39766187 62.38390894 -20.39766187 62.38390894 -18.46655273 64.88818359 C-15.37327895 69.2816325 -15.42549531 74.0457598 -15.77514648 79.29052734 C-17.30475559 87.07890399 -21.21241968 92.93158378 -27.61108398 97.64208984 C-33.65145155 101.30851382 -40.04466161 102.35572518 -46.97827148 100.79443359 C-54.42321208 98.55335454 -59.71500474 95.57517398 -63.65014648 88.72802734 C-67.07714985 82.18040832 -68.17496126 75.04533296 -66.05639648 67.84912109 C-62.94688349 60.43895102 -59.10988017 55.51098652 -51.73999023 52.05224609 C-47.92519254 50.57334838 -44.61833929 50.17416954 -40.52514648 50.22802734 C-39.63311523 50.23705078 -38.74108398 50.24607422 -37.82202148 50.25537109 C-37.14655273 50.26697266 -36.47108398 50.27857422 -35.77514648 50.29052734 C-35.45989014 49.72470947 -35.14463379 49.1588916 -34.81982422 48.57592773 C-28.24018074 36.79157972 -21.54734247 25.07927833 -14.65014648 13.47802734 C-13.69192993 11.85102905 -13.69192993 11.85102905 -12.71435547 10.19116211 C-12.11308838 9.18625732 -11.51182129 8.18135254 -10.89233398 7.14599609 C-10.36236816 6.25549561 -9.83240234 5.36499512 -9.28637695 4.44750977 C-6.65265127 0.68838756 -4.36325825 0.03905324 0 0 Z M-51.58764648 67.97802734 C-53.64612353 71.98664053 -54.48336574 75.92666968 -53.18530273 80.25927734 C-51.41698736 83.8414441 -49.90948479 85.21091946 -46.40014648 87.29052734 C-42.46964381 88.37480394 -40.61665511 88.59827496 -36.77514648 87.29052734 C-31.583315 83.68600212 -31.583315 83.68600212 -28.77514648 78.29052734 C-28.8534443 73.3577648 -28.97772728 71.28191338 -32.08764648 67.41552734 C-35.19691525 64.95703576 -37.21171473 63.49624205 -41.15014648 62.97802734 C-45.35534927 63.47864672 -48.49641754 65.0999866 -51.58764648 67.97802734 Z " fill="#000000" transform="translate(146.775146484375,372.70947265625)"/>
<path d="M0 0 C5.00343112 5.06566285 7.66618588 11.72605082 7.8203125 18.77734375 C7.70201638 26.76890417 5.1986388 32.96151745 -0.4296875 38.58984375 C-6.15558423 43.07098032 -11.45306886 44.70764656 -18.6640625 44.63671875 C-19.55834961 44.62995117 -20.45263672 44.62318359 -21.37402344 44.61621094 C-22.39157715 44.60315918 -22.39157715 44.60315918 -23.4296875 44.58984375 C-23.74494385 45.15566162 -24.0602002 45.72147949 -24.38500977 46.30444336 C-30.96465325 58.08879137 -37.65749152 69.80109277 -44.5546875 81.40234375 C-45.19349854 82.48700928 -45.83230957 83.5716748 -46.49047852 84.68920898 C-47.09174561 85.69411377 -47.6930127 86.69901855 -48.3125 87.734375 C-48.84246582 88.62487549 -49.37243164 89.51537598 -49.91845703 90.43286133 C-51.4296875 92.58984375 -51.4296875 92.58984375 -54.4296875 94.58984375 C-56.62376404 94.85726929 -56.62376404 94.85726929 -59.20483398 94.88037109 C-60.65665321 94.89951065 -60.65665321 94.89951065 -62.13780212 94.91903687 C-63.70347679 94.92237534 -63.70347679 94.92237534 -65.30078125 94.92578125 C-66.91159325 94.93576645 -66.91159325 94.93576645 -68.5549469 94.94595337 C-70.82705979 94.95608278 -73.09920245 94.9607703 -75.37133789 94.96044922 C-78.85026973 94.96482248 -82.32793332 95.00114072 -85.80664062 95.0390625 C-88.01301649 95.04493049 -90.21939839 95.0489 -92.42578125 95.05078125 C-93.46754013 95.06515228 -94.50929901 95.07952332 -95.58262634 95.09432983 C-102.74401433 95.04894936 -102.74401433 95.04894936 -106.12133789 92.78759766 C-107.4296875 90.58984375 -107.4296875 90.58984375 -107.3671875 86.96484375 C-106.4296875 83.58984375 -106.4296875 83.58984375 -103.4296875 81.58984375 C-101.54414368 81.49978638 -101.54414368 81.49978638 -99.39575195 81.71533203 C-98.1815155 81.81930046 -98.1815155 81.81930046 -96.94274902 81.92536926 C-96.06832153 82.00284897 -95.19389404 82.08032867 -94.29296875 82.16015625 C-74.62105062 84.38157241 -74.62105062 84.38157241 -56.96484375 78.02880859 C-51.43698621 71.92156596 -48.57294979 63.99631931 -45.90649414 56.33032227 C-43.96828861 51.02773039 -40.81946103 46.42361012 -37.73730469 41.72363281 C-36.06446136 38.6143078 -36.06446136 38.6143078 -37.3137207 35.3137207 C-38.80717211 32.49646215 -38.80717211 32.49646215 -40.73828125 29.9921875 C-43.83155503 25.5987386 -43.77933867 20.83461129 -43.4296875 15.58984375 C-41.90007839 7.8014671 -37.9924143 1.94878731 -31.59375 -2.76171875 C-21.39546688 -8.951943 -9.25824872 -7.08363681 0 0 Z M-27.7421875 11.83984375 C-29.86587419 15.3006665 -30.4296875 17.52083207 -30.4296875 21.58984375 C-29.07735655 25.6720353 -27.14713505 28.06806372 -23.6796875 30.58984375 C-19.57745111 31.85207033 -16.52901415 31.83232008 -12.4296875 30.58984375 C-9.45088255 28.77665813 -7.86465353 27.30160634 -6.0546875 24.33984375 C-5.18962179 20.53355464 -5.25709441 17.32701141 -6.4296875 13.58984375 C-9.29684127 9.92625837 -11.95716181 7.88452224 -16.4296875 6.58984375 C-21.21912249 6.58984375 -24.3504531 8.53977785 -27.7421875 11.83984375 Z " fill="#000000" transform="translate(424.4296875,44.41015625)"/>
<path d="M0 0 C5.40905682 4.0469936 8.84388993 8.90106428 10.6875 15.4375 C11.53658292 22.39997992 11.14723399 29.68419844 6.86181641 35.56079102 C5.58741998 37.37186988 4.66749827 38.88424934 4 41 C5.08846107 44.15132293 6.09565518 46.20180028 7.875 48.9375 C11.34858393 54.35276692 14.22855533 59.3491732 16.28515625 65.4765625 C18.96523614 72.56060063 21.45498267 78.75696187 28 83 C39.41137329 86.2793373 52.65977314 85.0094763 64.34867859 84.00675964 C70.39251118 83.58674698 70.39251118 83.58674698 73.58544922 85.75878906 C75 88 75 88 74.9375 91.625 C74 95 74 95 71 97 C68.81265259 97.27415466 68.81265259 97.27415466 66.24072266 97.30639648 C65.27607086 97.32238388 64.31141907 97.33837128 63.3175354 97.35484314 C62.27688934 97.36020584 61.23624329 97.36556854 60.1640625 97.37109375 C59.09255951 97.38012222 58.02105652 97.3891507 56.91708374 97.39845276 C54.64917805 97.41296721 52.38123038 97.42184495 50.11328125 97.42553711 C46.64511469 97.43743102 43.17872831 97.48660518 39.7109375 97.53710938 C37.50782119 97.54657371 35.30469394 97.55380869 33.1015625 97.55859375 C32.0649649 97.57812607 31.02836731 97.59765839 29.96035767 97.61778259 C22.77986916 97.57283611 22.77986916 97.57283611 19.01757812 94.80932617 C17.06321625 92.08802388 15.26524916 89.40960091 13.6171875 86.4921875 C13.01285889 85.43112793 12.40853027 84.37006836 11.78588867 83.27685547 C11.15529541 82.15424316 10.52470215 81.03163086 9.875 79.875 C9.20870592 78.71297658 8.54113136 77.55168649 7.87231445 76.39111328 C4.77718358 71.00428581 1.75985903 65.59295993 -1.07421875 60.0625 C-1.54134277 59.17965332 -2.0084668 58.29680664 -2.48974609 57.38720703 C-3.34968446 55.75399076 -4.17888766 54.10408825 -4.97119141 52.43701172 C-6.15710249 50.21867201 -7.08149216 48.63142219 -9 47 C-11.64740773 46.53144195 -13.94507883 46.61336421 -16.62133789 46.83056641 C-22.15474823 47.22471469 -27.19931929 44.08040843 -31.8125 41.3125 C-37.67668031 35.11322367 -40.41239049 27.94834199 -40.2734375 19.5 C-39.49711443 12.40218904 -36.39219075 6.26765417 -31.12109375 1.47265625 C-21.06786074 -5.50721271 -10.6782945 -5.35485063 0 0 Z M-24 13 C-26.54494462 16.39325949 -27.23421066 18.916359 -26.9375 23.0625 C-26.24936822 26.93231635 -24.89695262 29.26398919 -22 32 C-18.3104295 34.25473753 -15.08996398 34.26873957 -10.9296875 33.609375 C-6.98247332 32.36288631 -4.97539556 29.33008486 -2.625 26.125 C-1.63087075 22.74496055 -2.12293513 20.39131751 -3 17 C-5.42608347 12.88783536 -8.32355992 10.23064213 -13 9 C-17.32534207 9 -20.43499683 10.61344902 -24 13 Z " fill="#000000" transform="translate(120,42)"/>
<path d="M0 0 C0.96465179 -0.0159874 1.92930359 -0.03197479 2.92318726 -0.04844666 C3.96383331 -0.05380936 5.00447937 -0.05917206 6.07666016 -0.06469727 C7.14816315 -0.07372574 8.21966614 -0.08275421 9.32363892 -0.09205627 C11.5915446 -0.10657072 13.85949228 -0.11544847 16.12744141 -0.11914062 C19.59560797 -0.13103453 23.06199434 -0.18020869 26.52978516 -0.23071289 C28.73290147 -0.24017722 30.93602871 -0.24741221 33.13916016 -0.25219727 C34.17575775 -0.27172958 35.21235535 -0.2912619 36.28036499 -0.31138611 C43.4608535 -0.26643963 43.4608535 -0.26643963 47.22314453 2.49707031 C49.17750641 5.2183726 50.9754735 7.89679557 52.62353516 10.81420898 C53.22786377 11.87526855 53.83219238 12.93632812 54.45483398 14.02954102 C55.08542725 15.15215332 55.71602051 16.27476562 56.36572266 17.43139648 C57.03201674 18.5934199 57.69959129 19.75471 58.3684082 20.9152832 C61.46353907 26.30211067 64.48086363 31.71343655 67.31494141 37.24389648 C67.78206543 38.12674316 68.24918945 39.00958984 68.73046875 39.91918945 C69.59040711 41.55240573 70.41961032 43.20230824 71.21191406 44.86938477 C72.39782514 47.08772447 73.32221482 48.67497429 75.24072266 50.30639648 C77.88813039 50.77495454 80.18580148 50.69303227 82.86206055 50.47583008 C88.39547089 50.08168179 93.44004194 53.22598806 98.05322266 55.99389648 C103.68690128 61.9494996 106.61495748 68.90639034 106.44775391 77.09936523 C105.69643901 85.10866552 102.20710592 91.00027696 96.24072266 96.30639648 C90.58480639 100.44370521 84.17192987 101.68360504 77.24072266 101.30639648 C69.57986395 99.73916832 63.98270035 96.53871002 59.24072266 90.30639648 C55.47316181 84.0271284 54.02463185 77.34959659 55.77197266 70.10327148 C57.64193957 64.12750766 57.64193957 64.12750766 59.37890625 61.74560547 C60.65330267 59.93452661 61.57322439 58.42214715 62.24072266 56.30639648 C61.15226158 53.15507356 60.14506748 51.10459621 58.36572266 48.36889648 C54.89213873 42.95362956 52.01216732 37.95722329 49.95556641 31.82983398 C47.27548652 24.74579585 44.78573999 18.54943461 38.24072266 14.30639648 C26.82934937 11.02705918 13.58094951 12.29692018 1.89204407 13.29963684 C-4.15178853 13.7196495 -4.15178853 13.7196495 -7.34472656 11.54760742 C-8.75927734 9.30639648 -8.75927734 9.30639648 -8.69677734 5.68139648 C-7.27894109 0.57718598 -4.87195299 0.06107501 0 0 Z M71.24072266 67.30639648 C68.81368517 70.71941795 68.24072266 72.61864691 68.24072266 76.80639648 C69.70107789 81.91763981 71.99276618 84.98067856 76.67822266 87.74389648 C80.90972907 88.67276375 84.0153584 87.84783651 87.92822266 86.11889648 C90.95014836 83.75036012 92.00431205 81.94693884 93.24072266 78.30639648 C93.4493703 74.04998457 92.70869623 71.07521021 90.49072266 67.43139648 C87.44385233 64.55379673 84.96319826 63.57836632 80.86572266 62.93139648 C77.10294982 63.46893546 74.17933169 64.96853757 71.24072266 67.30639648 Z " fill="#000000" transform="translate(325.75927734375,372.693603515625)"/>
<path d="M0 0 C4.99911306 3.76063478 8.22863476 8.70917408 10.16015625 14.625 C11.1892914 23.49722827 10.70883765 31.36903202 5.16015625 38.625 C-0.47794973 44.08123159 -6.18490491 46.90452972 -14.08984375 47 C-21.24303809 46.85467551 -26.57199957 45.68585981 -31.875 40.71875 C-38.83984375 33.05313142 -38.83984375 33.05313142 -38.83984375 27.625 C-39.72267532 27.63388245 -40.6055069 27.64276489 -41.51509094 27.6519165 C-49.8287243 27.73201376 -58.14222837 27.79293955 -66.45615864 27.83224869 C-70.73062389 27.85313731 -75.00477075 27.88147767 -79.27905273 27.92675781 C-83.40283023 27.97017093 -87.52630119 27.9941275 -91.65028954 28.00450897 C-93.22482315 28.01190858 -94.7993397 28.02635824 -96.37374306 28.04792023 C-98.57676265 28.07689553 -100.77851045 28.0809587 -102.98168945 28.07910156 C-104.86365776 28.09242523 -104.86365776 28.09242523 -106.78364563 28.10601807 C-109.83984375 27.625 -109.83984375 27.625 -111.78019714 25.79193115 C-113.27527634 22.73455932 -112.74893667 20.84179034 -111.83984375 17.625 C-109.83984375 15.625 -109.83984375 15.625 -106.90390015 15.38449097 C-105.01860092 15.3911528 -105.01860092 15.3911528 -103.09521484 15.39794922 C-102.40241928 15.39765717 -101.70962372 15.39736511 -100.99583435 15.39706421 C-98.70152341 15.39845969 -96.40753559 15.41403081 -94.11328125 15.4296875 C-92.52430397 15.43341686 -90.93532439 15.4362642 -89.34634399 15.43826294 C-85.16070221 15.44590547 -80.97519885 15.46555919 -76.78961182 15.4876709 C-72.51991651 15.50811604 -68.25019888 15.5172618 -63.98046875 15.52734375 C-55.60019684 15.54880457 -47.2200375 15.58294789 -38.83984375 15.625 C-38.64261719 14.47837891 -38.64261719 14.47837891 -38.44140625 13.30859375 C-37.02199591 6.97654894 -32.14642273 2.106787 -26.83984375 -1.375 C-17.92433903 -4.97313069 -8.39034244 -4.8022773 0 0 Z M-25.83984375 15.625 C-27.2905748 19.86559846 -27.3797716 23.27518038 -25.71484375 27.4375 C-22.26536663 31.46188998 -20.32448491 33.43647414 -14.90234375 34.125 C-10.67448002 33.90921111 -8.09879856 32.34079568 -4.83984375 29.625 C-2.14441458 25.58185624 -2.1753201 22.37391289 -2.83984375 17.625 C-4.44699149 14.46810266 -5.81422609 12.43084244 -8.58984375 10.25 C-15.9304352 8.21094682 -21.33636887 9.26562626 -25.83984375 15.625 Z " fill="#000000" transform="translate(501.83984375,234.375)"/>
<path d="M0 0 C5.89507333 3.03981682 10.57350654 8.38627654 13.125 14.5 C13.125 15.49 13.125 16.48 13.125 17.5 C14.00783157 17.48889694 14.89066315 17.47779388 15.80024719 17.46635437 C24.11384912 17.36623318 32.42724905 17.29007637 40.74131489 17.24093914 C45.01587419 17.21482778 49.28993603 17.17940279 53.56420898 17.12280273 C57.6880044 17.0685361 61.81132092 17.03859106 65.93544579 17.02561378 C67.51000702 17.01636411 69.08454158 16.99830142 70.65889931 16.97134972 C72.8621273 16.93512716 75.0633686 16.93005131 77.2668457 16.93237305 C79.14881401 16.91571846 79.14881401 16.91571846 81.06880188 16.89872742 C84.125 17.5 84.125 17.5 86.10050964 19.83235168 C87.125 22.5 87.125 22.5 86.375 25.75 C85.125 28.5 85.125 28.5 84.125 29.5 C81.91632169 29.59432985 79.70458479 29.61742431 77.49389648 29.61352539 C76.80124695 29.61367142 76.10859741 29.61381744 75.3949585 29.6139679 C73.09530554 29.61326874 70.79573263 29.60547628 68.49609375 29.59765625 C66.90568588 29.59579208 65.31527743 29.59436817 63.72486877 29.59336853 C59.5310407 29.58954329 55.33724705 29.57971295 51.14343262 29.56866455 C46.86711086 29.55845057 42.59078356 29.55387094 38.31445312 29.54882812 C29.91795292 29.53809069 21.52148074 29.52101419 13.125 29.5 C12.99351563 30.26441406 12.86203125 31.02882813 12.7265625 31.81640625 C11.30715216 38.14845106 6.43157898 43.018213 1.125 46.5 C-5.88898694 49.33071374 -13.4396895 49.80450309 -20.73046875 47.66015625 C-27.67676753 44.53905075 -31.7208428 39.94993719 -35.00390625 33.16796875 C-37.31783608 26.08091012 -36.93254898 17.78425851 -33.875 11 C-26.97390912 -0.92006606 -12.69929008 -4.93133945 0 0 Z M-20.875 15.5 C-23.57042917 19.54314376 -23.53952365 22.75108711 -22.875 27.5 C-21.26785226 30.65689734 -19.90061766 32.69415756 -17.125 34.875 C-12.7087731 36.10172969 -8.9649157 36.55296519 -4.8359375 34.47265625 C-1.20093521 31.77258253 0.5476411 29.45374328 1.25 24.9375 C1.38403255 20.94333014 0.78497412 18.60330314 -1.875 15.5 C-4.89532963 12.30708011 -6.40037867 11.56026937 -10.8125 11 C-15.04036373 11.21578889 -17.61604519 12.78420432 -20.875 15.5 Z " fill="#000000" transform="translate(35.875,232.5)"/>
</svg>
